<?xml version="1.0" standalone="no"?>
<!DOCTYPE svg PUBLIC "-//W3C//DTD SVG 20010904//EN"
 "http://www.w3.org/TR/2001/REC-SVG-20010904/DTD/svg10.dtd">
<svg version="1.0" xmlns="http://www.w3.org/2000/svg"
 width="716.000000pt" height="716.000000pt" viewBox="0 0 716.000000 716.000000"
 preserveAspectRatio="xMidYMid meet">
<metadata>
Created by potrace 1.14, written by Peter Selinger 2001-2017
</metadata>
<g transform="translate(0.000000,716.000000) scale(0.100000,-0.100000)"
fill="#000000" stroke="none">
<path d="M3547 7154 c-1 -1 -69 -4 -152 -8 -82 -3 -161 -8 -175 -10 -14 -3
-49 -7 -78 -10 -483 -54 -1020 -244 -1447 -511 -93 -59 -257 -172 -302 -209
-8 -6 -19 -16 -26 -21 -7 -6 -37 -30 -67 -55 -108 -88 -301 -274 -396 -382
-430 -487 -721 -1083 -838 -1720 -14 -75 -28 -165 -31 -200 -4 -35 -8 -74 -10
-86 -22 -135 -22 -602 0 -722 2 -14 7 -52 10 -85 7 -78 13 -119 25 -181 6 -28
13 -64 16 -80 3 -16 10 -49 15 -74 6 -25 12 -52 14 -60 56 -258 238 -716 360
-910 14 -22 25 -42 25 -45 0 -12 126 -205 199 -305 529 -728 1312 -1229 2191
-1404 69 -13 145 -27 170 -30 25 -3 54 -8 65 -10 11 -2 54 -7 95 -10 41 -4 89
-9 105 -11 37 -6 452 -6 520 -1 59 5 170 17 199 21 12 2 71 11 131 20 393 59
833 217 1205 433 151 87 442 289 485 336 6 6 39 36 75 65 126 106 322 311 441
461 315 396 543 851 665 1325 14 55 28 108 30 118 2 10 5 26 8 35 3 9 7 34 11
56 3 21 7 41 10 45 2 4 6 29 10 57 3 27 8 63 11 79 6 34 10 70 19 170 3 39 8
88 11 110 5 44 5 393 0 465 -7 91 -17 206 -22 230 -2 14 -9 57 -15 95 -130
865 -608 1685 -1303 2238 -588 467 -1302 739 -2031 773 -152 7 -226 9 -228 8z"/>
</g>
</svg>
